<?xml version="1.0" standalone="no"?>
<!DOCTYPE svg PUBLIC "-//W3C//DTD SVG 20010904//EN"
 "http://www.w3.org/TR/2001/REC-SVG-20010904/DTD/svg10.dtd">
<svg version="1.0" xmlns="http://www.w3.org/2000/svg"
 width="512.000000pt" height="512.000000pt" viewBox="0 0 512.000000 512.000000"
 preserveAspectRatio="xMidYMid meet">
<metadata>
Created by potrace 1.16, written by Peter Selinger 2001-2019
</metadata>
<g transform="translate(0.000000,512.000000) scale(0.100000,-0.100000)"
fill="#000000" stroke="none">
<path d="M180 4940 c-20 -20 -20 -33 -20 -2380 0 -2347 0 -2360 20 -2380 20
-20 33 -20 1940 -20 1907 0 1920 0 1940 20 20 20 20 33 20 1617 l0 1598 440
440 440 441 0 44 c0 44 -1 45 -178 222 -177 177 -178 178 -222 178 l-44 0
-258 -257 -258 -258 -378 378 -378 377 -1522 0 c-1509 0 -1522 0 -1542 -20z
m3295 -460 l320 -320 -258 0 -257 0 0 200 0 200 -80 0 -80 0 0 -260 c0 -247 1
-261 20 -280 19 -19 33 -20 337 -20 l318 0 -936 -937 -937 -938 -81 -245 c-44
-135 -81 -262 -81 -283 0 -49 28 -77 77 -77 21 0 148 37 283 81 l245 81 778
777 777 776 0 -1458 0 -1457 -1800 0 -1800 0 0 2240 0 2240 1418 0 1417 0 320
-320z m1185 -65 l95 -95 -1218 -1218 -1217 -1217 -97 98 -98 97 1215 1215
c668 668 1217 1215 1220 1215 3 0 48 -43 100 -95z"/>
<path d="M1168 4253 l-208 -208 -50 50 -50 50 -63 -63 -62 -63 91 -89 c87 -86
93 -90 135 -90 l43 0 251 250 250 250 -60 60 c-33 33 -62 60 -65 60 -3 0 -98
-93 -212 -207z"/>
<path d="M580 4380 c-19 -19 -20 -33 -20 -380 0 -347 1 -361 20 -380 19 -19
33 -20 380 -20 347 0 361 1 380 20 18 18 20 33 20 160 l0 140 -80 0 -80 0 0
-80 0 -80 -240 0 -240 0 0 240 0 240 120 0 120 0 0 80 0 80 -180 0 c-167 0
-181 -1 -200 -20z"/>
<path d="M1168 3213 l-208 -208 -50 50 -50 50 -63 -63 -62 -63 91 -89 c87 -86
93 -90 135 -90 l43 0 251 250 250 250 -60 60 c-33 33 -62 60 -65 60 -3 0 -98
-93 -212 -207z"/>
<path d="M580 3340 c-19 -19 -20 -33 -20 -380 0 -347 1 -361 20 -380 19 -19
33 -20 380 -20 347 0 361 1 380 20 18 18 20 33 20 160 l0 140 -80 0 -80 0 0
-80 0 -80 -240 0 -240 0 0 240 0 240 120 0 120 0 0 80 0 80 -180 0 c-167 0
-181 -1 -200 -20z"/>
<path d="M580 2300 c-19 -19 -20 -33 -20 -380 0 -347 1 -361 20 -380 19 -19
33 -20 380 -20 347 0 361 1 380 20 19 19 20 33 20 380 0 347 -1 361 -20 380
-19 19 -33 20 -380 20 -347 0 -361 -1 -380 -20z m620 -380 l0 -240 -240 0
-240 0 0 240 0 240 240 0 240 0 0 -240z"/>
<path d="M580 1260 c-19 -19 -20 -33 -20 -380 0 -347 1 -361 20 -380 19 -19
33 -20 380 -20 347 0 361 1 380 20 19 19 20 33 20 380 0 347 -1 361 -20 380
-19 19 -33 20 -380 20 -347 0 -361 -1 -380 -20z m620 -380 l0 -240 -240 0
-240 0 0 240 0 240 240 0 240 0 0 -240z"/>
<path d="M2960 560 l0 -80 80 0 80 0 0 80 0 80 -80 0 -80 0 0 -80z"/>
<path d="M3280 560 l0 -80 80 0 80 0 0 80 0 80 -80 0 -80 0 0 -80z"/>
<path d="M3600 560 l0 -80 80 0 80 0 0 80 0 80 -80 0 -80 0 0 -80z"/>
</g>
</svg>
