<?xml version="1.0" standalone="no"?>
<!DOCTYPE svg PUBLIC "-//W3C//DTD SVG 20010904//EN"
 "http://www.w3.org/TR/2001/REC-SVG-20010904/DTD/svg10.dtd">
<svg version="1.0" xmlns="http://www.w3.org/2000/svg"
 width="512.000000pt" height="512.000000pt" viewBox="0 0 512.000000 512.000000"
 preserveAspectRatio="xMidYMid meet">
<metadata>
Created by potrace 1.16, written by Peter Selinger 2001-2019
</metadata>
<g transform="translate(0.000000,512.000000) scale(0.100000,-0.100000)"
fill="#000000" stroke="none">
<path d="M2208 5095 c-137 -34 -284 -140 -358 -258 l-34 -55 -121 -4 c-105 -3
-128 -7 -180 -31 -32 -15 -73 -38 -90 -51 -26 -20 -46 -24 -151 -29 -241 -12
-419 -107 -539 -287 -78 -118 -115 -252 -115 -420 l0 -68 -42 -7 c-239 -39
-451 -220 -541 -459 -26 -69 -31 -99 -35 -203 -5 -144 11 -233 62 -339 98
-203 276 -344 491 -388 l60 -13 6 -574 c6 -637 4 -622 76 -768 48 -100 168
-222 270 -274 149 -77 146 -77 870 -77 l643 0 0 -88 c0 -299 194 -563 485
-659 71 -24 96 -27 220 -27 128 0 147 2 220 27 239 83 404 262 465 501 24 97
26 230 4 326 l-15 69 42 43 c54 56 93 114 130 192 60 128 59 112 59 1312 l0
1095 -25 24 c-15 16 -36 25 -55 25 -19 0 -40 -9 -55 -25 l-25 -24 0 -1084 c0
-735 -3 -1102 -11 -1143 -13 -73 -57 -166 -101 -218 l-33 -38 -47 61 c-89 113
-230 204 -376 242 -94 24 -262 26 -346 4 -206 -54 -372 -187 -459 -366 l-42
-88 -650 0 c-703 -1 -707 -1 -814 53 -62 32 -151 113 -189 174 -17 26 -41 76
-54 112 -23 65 -23 68 -26 627 -3 631 -12 564 73 578 158 26 352 163 448 315
217 347 92 817 -268 1002 -74 38 -150 64 -210 73 l-45 7 0 62 c1 284 152 489
397 541 107 23 104 25 86 -42 -10 -40 -14 -84 -10 -141 9 -157 101 -290 247
-361 l75 -36 760 -3 c734 -2 762 -2 825 17 130 40 240 149 280 279 24 76 26
188 6 255 -14 46 -13 47 7 47 12 0 50 -7 85 -15 189 -45 332 -188 377 -377 9
-37 15 -112 15 -181 0 -112 1 -119 25 -142 29 -30 74 -32 106 -6 23 19 24 23
24 178 0 137 -3 168 -23 233 -34 110 -86 196 -166 276 -127 127 -260 182 -461
191 -96 4 -124 9 -140 23 -29 27 -114 67 -165 79 -25 6 -88 11 -140 11 l-95 0
-29 50 c-65 109 -188 207 -316 251 -83 28 -257 36 -342 14z m257 -159 c119
-31 227 -119 284 -230 23 -43 43 -68 60 -75 14 -5 87 -12 161 -13 152 -4 185
-15 252 -85 133 -138 90 -357 -87 -439 l-50 -24 -730 0 c-712 0 -731 1 -775
21 -176 79 -224 298 -97 437 70 75 100 85 272 92 83 3 156 9 163 13 7 5 26 36
43 69 36 72 106 150 167 185 99 58 231 78 337 49z m-1615 -1223 c230 -62 400
-286 400 -523 0 -149 -54 -277 -164 -386 -171 -171 -413 -212 -624 -105 -125
64 -227 177 -274 306 -32 90 -37 243 -9 332 89 291 381 455 671 376z m2522
-2483 c214 -80 358 -287 358 -515 0 -141 -54 -269 -157 -377 -241 -249 -643
-215 -838 73 -64 94 -86 161 -92 275 -6 111 8 183 53 273 124 248 421 367 676
271z"/>
<path d="M2257 4786 c-93 -33 -167 -119 -188 -214 -38 -183 96 -352 279 -352
84 0 129 14 188 59 92 69 133 199 100 314 -23 79 -70 135 -145 174 -53 28 -73
33 -129 33 -37 -1 -84 -7 -105 -14z m168 -166 c35 -21 65 -73 65 -110 0 -37
-32 -91 -64 -111 -39 -24 -99 -24 -137 -2 -16 10 -39 37 -51 61 -18 38 -19 49
-9 82 6 21 27 52 46 69 43 38 100 42 150 11z"/>
<path d="M533 3575 c-44 -31 -37 -111 13 -134 14 -6 40 -11 59 -11 l34 0 3
-306 3 -306 24 -19 c31 -25 85 -25 111 1 19 19 20 33 20 383 l0 364 -23 21
c-21 20 -34 22 -123 22 -72 0 -105 -4 -121 -15z"/>
<path d="M3101 1108 c-50 -14 -134 -103 -150 -158 -20 -73 9 -120 74 -120 40
0 62 16 75 55 24 71 99 97 145 50 54 -54 20 -135 -62 -148 -103 -17 -97 -141
7 -161 81 -15 109 -100 49 -150 -35 -30 -49 -32 -89 -11 -34 18 -50 43 -50 80
0 14 -11 37 -25 50 -33 33 -78 33 -112 -1 -23 -23 -25 -31 -20 -80 21 -207
273 -294 421 -148 67 66 88 187 48 277 -11 24 -25 48 -31 51 -8 5 -5 16 9 35
11 16 24 41 30 57 16 40 14 145 -3 185 -49 116 -184 175 -316 137z"/>
<path d="M1714 3436 c-37 -31 -39 -90 -5 -117 22 -18 52 -19 641 -19 l619 0
20 26 c35 45 26 95 -20 119 -24 13 -121 15 -628 15 l-600 0 -27 -24z"/>
<path d="M1714 3057 c-37 -32 -39 -90 -5 -118 22 -18 48 -19 445 -19 l423 0
21 23 c27 29 28 77 3 108 l-19 24 -420 3 -420 3 -28 -24z"/>
<path d="M1795 2645 c-270 -59 -482 -268 -541 -532 -24 -111 -16 -293 19 -393
15 -41 36 -83 48 -92 28 -24 70 -23 103 3 33 26 33 56 0 156 -23 69 -26 89
-22 183 5 120 27 192 84 278 101 153 279 251 456 252 246 0 476 -182 533 -422
52 -220 -39 -452 -225 -577 -194 -129 -420 -128 -620 3 -63 42 -89 45 -125 13
-27 -23 -33 -45 -22 -88 12 -48 157 -130 289 -165 84 -22 252 -22 341 -1 256
63 469 281 523 538 38 177 0 387 -96 533 -161 245 -466 373 -745 311z"/>
<path d="M1884 2360 c-52 -8 -127 -52 -155 -91 -53 -75 -55 -164 -3 -188 53
-24 95 -3 121 60 8 22 25 45 36 51 59 31 127 -8 127 -72 0 -43 -36 -101 -199
-324 -113 -155 -123 -185 -76 -231 24 -25 25 -25 218 -25 181 0 196 1 221 21
20 16 26 29 26 59 0 30 -6 43 -26 59 -23 18 -41 21 -125 21 -55 0 -99 2 -99 4
0 2 37 55 81 118 106 147 141 220 142 296 1 155 -132 267 -289 242z"/>
<path d="M2741 2194 c-28 -36 -27 -79 4 -109 l24 -25 495 0 495 0 25 23 c36
32 39 84 6 117 -19 19 -33 20 -524 20 l-505 0 -20 -26z"/>
<path d="M2741 1814 c-26 -33 -27 -75 -2 -105 l19 -24 298 -3 c205 -2 306 1
325 8 52 22 61 103 16 135 -18 12 -74 15 -328 15 l-308 0 -20 -26z"/>
<path d="M4133 980 c-45 -18 -58 -95 -23 -130 19 -19 33 -20 495 -20 462 0
476 1 495 20 28 28 27 90 -1 116 -20 18 -44 19 -483 21 -254 1 -471 -2 -483
-7z"/>
<path d="M4133 600 c-45 -18 -58 -95 -23 -130 19 -19 33 -20 299 -20 310 0
314 1 327 67 5 27 1 37 -24 63 l-30 30 -264 -1 c-145 0 -273 -4 -285 -9z"/>
</g>
</svg>
