<?xml version="1.0" standalone="no"?>
<!DOCTYPE svg PUBLIC "-//W3C//DTD SVG 20010904//EN"
 "http://www.w3.org/TR/2001/REC-SVG-20010904/DTD/svg10.dtd">
<svg version="1.0" xmlns="http://www.w3.org/2000/svg"
 width="512.000000pt" height="512.000000pt" viewBox="0 0 512.000000 512.000000"
 preserveAspectRatio="xMidYMid meet">
<metadata>
Created by potrace 1.16, written by Peter Selinger 2001-2019
</metadata>
<g transform="translate(0.000000,512.000000) scale(0.100000,-0.100000)"
fill="#000000" stroke="none">
<path d="M2465 5010 c-73 -13 -162 -48 -225 -87 -70 -44 -2193 -2162 -2221
-2215 -38 -75 -19 -188 43 -245 54 -51 145 -67 216 -38 20 9 79 57 130 108
l92 92 0 -913 c0 -803 2 -922 16 -984 73 -319 334 -566 654 -617 38 -6 238
-11 478 -11 350 0 418 2 450 15 47 20 79 50 103 97 18 36 19 71 19 878 l0 840
350 0 350 0 0 -840 c0 -807 1 -842 19 -878 24 -47 56 -77 103 -97 32 -13 99
-15 440 -15 233 0 430 5 468 11 377 61 670 397 670 769 0 87 -17 135 -62 177
-54 51 -146 67 -216 38 -80 -34 -115 -92 -130 -212 -22 -184 -130 -314 -297
-357 -46 -13 -117 -16 -327 -16 l-268 0 0 840 c0 807 -1 842 -19 878 -24 47
-56 77 -103 97 -56 23 -1200 23 -1256 0 -47 -20 -79 -50 -103 -97 -18 -36 -19
-71 -19 -878 l0 -840 -278 0 c-300 0 -356 7 -438 55 -104 61 -178 177 -195
303 -4 37 -8 538 -9 1114 l0 1046 780 774 c503 498 793 779 817 790 48 22 91
22 143 2 32 -13 217 -194 810 -793 l770 -776 0 -588 c0 -558 1 -590 19 -625
77 -150 285 -150 362 0 18 35 19 63 19 425 l0 388 93 -92 c50 -51 109 -99 129
-108 99 -40 210 1 259 97 24 46 25 137 3 181 -18 36 -181 203 -1346 1373 -743
747 -835 835 -895 867 -38 19 -93 42 -123 51 -67 20 -207 28 -275 16z"/>
</g>
</svg>
