<?xml version="1.0" standalone="no"?>
<!DOCTYPE svg PUBLIC "-//W3C//DTD SVG 20010904//EN"
 "http://www.w3.org/TR/2001/REC-SVG-20010904/DTD/svg10.dtd">
<svg version="1.0" xmlns="http://www.w3.org/2000/svg"
 width="512.000000pt" height="512.000000pt" viewBox="0 0 512.000000 512.000000"
 preserveAspectRatio="xMidYMid meet">
<metadata>
Created by potrace 1.16, written by Peter Selinger 2001-2019
</metadata>
<g transform="translate(0.000000,512.000000) scale(0.100000,-0.100000)"
fill="#000000" stroke="none">
<path d="M2453 5094 c-24 -14 -54 -44 -68 -68 -22 -37 -25 -55 -25 -134 l0
-92 -746 0 c-828 0 -801 2 -938 -67 -96 -49 -201 -153 -250 -251 -71 -141 -66
17 -66 -2080 0 -2102 -5 -1943 67 -2086 47 -93 152 -199 248 -248 141 -73 4
-68 1885 -68 1878 0 1741 -5 1884 67 96 48 201 153 249 249 72 143 67 -16 67
2084 0 2100 5 1941 -67 2084 -48 96 -153 201 -249 249 -132 66 -139 67 -670
67 l-477 0 -43 -25 c-124 -73 -128 -271 -7 -347 l38 -23 460 -5 c425 -5 463
-6 495 -24 49 -26 69 -45 94 -91 l21 -40 0 -1845 0 -1845 -21 -40 c-25 -46
-45 -65 -94 -91 -34 -18 -92 -19 -1680 -19 -1588 0 -1646 1 -1680 19 -49 26
-69 45 -94 91 l-21 40 0 1845 c0 1783 1 1846 19 1880 26 49 45 69 91 94 40 21
46 21 763 24 l722 3 0 -132 c0 -123 2 -135 25 -175 37 -63 95 -94 175 -94 80
0 138 31 175 94 l25 43 0 423 0 423 -25 43 c-37 63 -95 94 -176 94 -51 0 -73
-5 -106 -26z"/>
<path d="M1860 3979 c-19 -11 -94 -80 -167 -152 l-132 -130 -40 36 c-59 53
-92 67 -162 67 -121 0 -199 -78 -199 -199 0 -38 6 -75 16 -94 22 -43 218 -243
273 -278 38 -24 55 -29 108 -29 39 0 77 6 96 16 42 21 441 416 478 473 24 38
29 55 29 110 0 81 -31 139 -94 176 -57 33 -154 35 -206 4z"/>
<path d="M2453 3574 c-62 -37 -93 -95 -93 -174 0 -80 31 -138 94 -175 l43 -25
663 0 663 0 43 25 c63 37 94 95 94 175 0 80 -31 138 -94 175 l-43 25 -664 0
-664 0 -42 -26z"/>
<path d="M1860 2779 c-19 -11 -94 -80 -167 -152 l-132 -130 -40 36 c-59 53
-92 67 -162 67 -121 0 -199 -78 -199 -199 0 -38 6 -75 16 -94 22 -43 218 -243
273 -278 38 -24 55 -29 108 -29 39 0 77 6 96 16 42 21 441 416 478 473 24 38
29 55 29 110 0 81 -31 139 -94 176 -57 33 -154 35 -206 4z"/>
<path d="M2453 2374 c-62 -37 -93 -95 -93 -174 0 -80 31 -138 94 -175 l43 -25
663 0 663 0 43 25 c63 37 94 95 94 175 0 80 -31 138 -94 175 l-43 25 -664 0
-664 0 -42 -26z"/>
<path d="M1860 1579 c-19 -11 -94 -80 -167 -152 l-132 -130 -40 36 c-59 53
-92 67 -162 67 -121 0 -199 -78 -199 -199 0 -38 6 -75 16 -94 22 -43 218 -243
273 -278 38 -24 55 -29 108 -29 39 0 77 6 96 16 42 21 441 416 478 473 24 38
29 55 29 110 0 81 -31 139 -94 176 -57 33 -154 35 -206 4z"/>
<path d="M2453 1174 c-62 -37 -93 -95 -93 -174 0 -80 31 -138 94 -175 l43 -25
663 0 663 0 43 25 c63 37 94 95 94 175 0 80 -31 138 -94 175 l-43 25 -664 0
-664 0 -42 -26z"/>
</g>
</svg>
