<svg xmlns="http://www.w3.org/2000/svg" xmlns:xlink="http://www.w3.org/1999/xlink" width="500" zoomAndPan="magnify" viewBox="0 0 375 374.999991" height="500" preserveAspectRatio="xMidYMid meet" version="1.0"><path fill="#ff565a" d="M 255.808594 3.785156 C 255.808594 6.347656 248.132812 66.894531 247.464844 69.902344 C 247.128906 71.347656 247.351562 72.460938 248.132812 72.460938 C 248.6875 72.460938 264.929688 62.554688 283.953125 50.535156 C 303.089844 38.511719 322.445312 26.382812 327.007812 23.488281 C 345.140625 12.246094 349.257812 9.574219 349.257812 9.019531 C 349.257812 8.683594 332.125 7.238281 311.210938 5.902344 C 290.183594 4.453125 269.15625 3.007812 264.484375 2.671875 C 257.03125 2.117188 255.808594 2.226562 255.808594 3.785156 Z M 255.808594 3.785156 " fill-opacity="1" fill-rule="nonzero"/><path fill="#ff565a" d="M 230.109375 17.8125 C 218.09375 25.492188 187.5 45.304688 162.023438 61.664062 C 136.546875 78.136719 115.632812 92.050781 115.632812 92.605469 C 115.632812 93.164062 121.75 102.957031 129.316406 114.535156 C 136.769531 125.996094 153.457031 151.488281 166.25 171.1875 C 179.15625 191 196.511719 217.710938 204.855469 230.625 C 213.3125 243.535156 220.429688 253.441406 220.652344 252.660156 C 220.875 251.769531 222.433594 240.085938 224.101562 226.617188 C 225.769531 213.148438 228.550781 190.886719 230.332031 177.085938 C 232.113281 163.285156 234.558594 144.25 235.78125 134.789062 C 239.007812 109.636719 244.125 70.679688 248.578125 35.953125 C 250.800781 19.148438 252.46875 5.121094 252.25 4.566406 C 252.027344 4.121094 242.125 10.019531 230.109375 17.8125 Z M 230.109375 17.8125 " fill-opacity="1" fill-rule="nonzero"/><path fill="#ff565a" d="M 37.980469 88.488281 C 39.425781 95.167969 64.011719 180.425781 64.457031 180.425781 C 65.238281 180.425781 106.066406 97.058594 106.511719 94.609375 C 106.84375 92.71875 106.175781 92.496094 100.613281 92.496094 C 95.164062 92.496094 59.230469 89.378906 42.988281 87.488281 C 38.535156 86.929688 37.648438 87.152344 37.980469 88.488281 Z M 37.980469 88.488281 " fill-opacity="1" fill-rule="nonzero"/><path fill="#ff565a" d="M 25.519531 104.40625 C 20.960938 112.863281 14.730469 124.773438 11.390625 130.785156 C 8.164062 136.90625 5.605469 142.027344 5.828125 142.25 C 6.273438 142.582031 45.433594 129.671875 46.214844 129.003906 C 46.769531 128.335938 35.199219 89.15625 34.421875 89.15625 C 33.976562 89.15625 29.96875 96.058594 25.519531 104.40625 Z M 25.519531 104.40625 " fill-opacity="1" fill-rule="nonzero"/><path fill="#ff565a" d="M 89.042969 139.355469 C 76.585938 164.507812 66.90625 185.433594 67.351562 185.878906 C 68.242188 186.660156 193.507812 259.671875 222.878906 276.59375 C 228.886719 280.042969 234.003906 282.714844 234.335938 282.492188 C 234.558594 282.15625 231.890625 277.480469 228.328125 272.140625 C 220.320312 260.117188 205.523438 237.300781 183.382812 203.242188 C 174.152344 189.105469 163.25 172.410156 159.132812 165.957031 C 154.90625 159.5 142.890625 141.023438 132.320312 124.773438 C 121.75 108.523438 112.851562 94.945312 112.40625 94.386719 C 111.960938 93.941406 101.394531 114.199219 89.042969 139.355469 Z M 89.042969 139.355469 " fill-opacity="1" fill-rule="nonzero"/><path fill="#ff565a" d="M 225.546875 260.785156 C 226.660156 262.789062 228.773438 266.464844 230.21875 268.910156 C 231.667969 271.359375 234.449219 275.8125 236.339844 278.929688 C 238.34375 281.933594 251.136719 303.304688 264.707031 326.234375 C 278.390625 349.160156 290.296875 368.75 291.296875 369.753906 C 292.855469 371.421875 298.082031 371.757812 332.347656 372.425781 C 353.820312 372.757812 371.507812 372.757812 371.507812 372.203125 C 371.507812 371.757812 370.507812 370.644531 369.28125 369.863281 C 367.949219 369.085938 341.804688 348.828125 311.097656 324.785156 C 280.394531 300.746094 253.25 279.707031 250.800781 277.816406 C 248.355469 276.035156 241.457031 270.691406 235.449219 265.90625 C 229.554688 261.121094 224.324219 257.226562 223.992188 257.226562 C 223.65625 257.226562 224.324219 258.894531 225.546875 260.785156 Z M 225.546875 260.785156 " fill-opacity="1" fill-rule="nonzero"/><path fill="#ff565a" d="M 203.964844 271.359375 C 204.410156 272.363281 210.195312 290.058594 216.980469 310.539062 C 232.445312 357.621094 232.335938 357.398438 234.113281 357.398438 C 235.003906 357.398438 245.351562 358.398438 257.144531 359.625 C 268.9375 360.960938 279.28125 361.851562 280.28125 361.628906 C 281.617188 361.40625 276.835938 352.5 260.8125 325.675781 C 239.566406 290.171875 239.453125 290.058594 232.890625 286.050781 C 219.984375 278.261719 204.746094 269.46875 204.078125 269.46875 C 203.632812 269.46875 203.632812 270.359375 203.964844 271.359375 Z M 203.964844 271.359375 " fill-opacity="1" fill-rule="nonzero"/></svg>