<?xml version="1.0" standalone="no"?>
<!DOCTYPE svg PUBLIC "-//W3C//DTD SVG 20010904//EN"
 "http://www.w3.org/TR/2001/REC-SVG-20010904/DTD/svg10.dtd">
<svg version="1.0" xmlns="http://www.w3.org/2000/svg"
 width="512.000000pt" height="512.000000pt" viewBox="0 0 512.000000 512.000000"
 preserveAspectRatio="xMidYMid meet">
<metadata>
Created by potrace 1.16, written by Peter Selinger 2001-2019
</metadata>
<g transform="translate(0.000000,512.000000) scale(0.100000,-0.100000)"
fill="#000000" stroke="none">
<path d="M1012 4620 c-245 -65 -449 -270 -512 -516 -19 -75 -20 -118 -20
-1544 0 -1426 1 -1469 20 -1544 63 -248 268 -453 516 -516 74 -19 115 -20
1071 -20 980 0 993 0 1013 20 24 24 27 87 6 116 -14 19 -39 19 -1003 25 -850
4 -995 7 -1038 21 -210 64 -354 213 -406 418 -21 82 -21 2878 0 2960 53 211
210 368 421 421 82 21 2878 21 2960 0 205 -52 354 -196 418 -406 14 -43 17
-188 21 -1038 6 -964 6 -989 25 -1003 29 -21 92 -18 116 6 20 20 20 33 20
1013 0 956 -1 997 -20 1071 -63 248 -268 453 -516 516 -75 19 -117 20 -1548
19 -1413 0 -1474 -1 -1544 -19z"/>
<path d="M1312 3979 c-72 -28 -144 -101 -172 -176 -29 -78 -25 -206 9 -272 99
-190 369 -232 521 -81 159 160 102 452 -105 529 -74 28 -180 28 -253 0z m206
-169 c130 -79 74 -280 -78 -280 -85 0 -150 65 -150 150 0 54 27 102 72 130 20
12 51 20 78 20 27 0 58 -8 78 -20z"/>
<path d="M2100 3740 c-13 -13 -20 -33 -20 -60 0 -27 7 -47 20 -60 20 -20 33
-20 940 -20 907 0 920 0 940 20 13 13 20 33 20 60 0 27 -7 47 -20 60 -20 20
-33 20 -940 20 -907 0 -920 0 -940 -20z"/>
<path d="M1312 2859 c-72 -28 -144 -101 -172 -176 -29 -78 -25 -206 9 -272 99
-190 369 -232 521 -81 159 160 102 452 -105 529 -74 28 -180 28 -253 0z m206
-169 c130 -79 74 -280 -78 -280 -85 0 -150 65 -150 150 0 85 65 150 150 150
27 0 58 -8 78 -20z"/>
<path d="M2100 2620 c-13 -13 -20 -33 -20 -60 0 -27 7 -47 20 -60 20 -20 33
-20 940 -20 907 0 920 0 940 20 13 13 20 33 20 60 0 27 -7 47 -20 60 -20 20
-33 20 -940 20 -907 0 -920 0 -940 -20z"/>
<path d="M3800 1900 c-282 -73 -508 -300 -580 -584 -27 -109 -28 -283 0 -392
72 -285 299 -512 584 -584 109 -27 283 -27 392 0 284 72 513 301 584 584 27
109 27 283 0 392 -72 285 -299 512 -584 584 -107 27 -290 27 -396 0z m400
-180 c184 -62 341 -219 401 -401 20 -63 24 -93 24 -204 0 -115 -3 -138 -26
-202 -185 -507 -864 -576 -1143 -115 -64 106 -81 171 -81 317 0 111 4 141 24
203 108 329 473 512 801 402z"/>
<path d="M3940 1500 c-18 -18 -20 -33 -20 -160 l0 -140 -140 0 c-127 0 -142
-2 -160 -20 -13 -13 -20 -33 -20 -60 0 -27 7 -47 20 -60 18 -18 33 -20 160
-20 l140 0 0 -140 c0 -127 2 -142 20 -160 13 -13 33 -20 60 -20 27 0 47 7 60
20 18 18 20 33 20 160 l0 140 140 0 c127 0 142 2 160 20 13 13 20 33 20 60 0
27 -7 47 -20 60 -18 18 -33 20 -160 20 l-140 0 0 140 c0 127 -2 142 -20 160
-13 13 -33 20 -60 20 -27 0 -47 -7 -60 -20z"/>
<path d="M1312 1739 c-72 -28 -144 -101 -172 -176 -29 -78 -25 -206 9 -272 99
-190 369 -232 521 -81 159 160 102 452 -105 529 -74 28 -180 28 -253 0z m206
-169 c130 -79 74 -280 -78 -280 -85 0 -150 65 -150 150 0 116 129 190 228 130z"/>
<path d="M2100 1500 c-13 -13 -20 -33 -20 -60 0 -27 7 -47 20 -60 19 -19 33
-20 420 -20 387 0 401 1 420 20 13 13 20 33 20 60 0 27 -7 47 -20 60 -19 19
-33 20 -420 20 -387 0 -401 -1 -420 -20z"/>
</g>
</svg>
